<mxfile host="app.diagrams.net" modified="2022-01-14T07:32:44.679Z" agent="5.0 (Windows NT 10.0; Win64; x64) AppleWebKit/537.36 (KHTML, like Gecko) Chrome/97.0.4692.71 Safari/537.36" etag="-XwzvZ0vT5zwWBNvilqF" version="16.2.6" type="github" pages="2">
  <diagram id="Bi_J7b9Yd5lxBIXmXcTw" name="Page-1">
    <mxGraphModel dx="1142" dy="598" grid="1" gridSize="10" guides="1" tooltips="1" connect="1" arrows="1" fold="1" page="1" pageScale="1" pageWidth="827" pageHeight="1169" math="0" shadow="0">
      <root>
        <mxCell id="0" />
        <mxCell id="1" parent="0" />
        <mxCell id="CLN-RXMXk3StLQkUaewG-1" value="게시판&lt;br&gt;donation/detail" style="rounded=1;whiteSpace=wrap;html=1;" vertex="1" parent="1">
          <mxGeometry x="990" y="230" width="120" height="60" as="geometry" />
        </mxCell>
        <mxCell id="CLN-RXMXk3StLQkUaewG-22" value="댓글 목록&lt;br&gt;[POST]&lt;br&gt;/donation_reply/more" style="rounded=1;whiteSpace=wrap;html=1;fillColor=#e1d5e7;strokeColor=#9673a6;" vertex="1" parent="1">
          <mxGeometry x="550" y="150" width="120" height="60" as="geometry" />
        </mxCell>
        <mxCell id="CLN-RXMXk3StLQkUaewG-30" value="댓글 쓰기(등록)&lt;br&gt;[POST]&lt;br&gt;/donation_reply/insert" style="rounded=1;whiteSpace=wrap;html=1;fillColor=#e1d5e7;strokeColor=#9673a6;" vertex="1" parent="1">
          <mxGeometry x="550" y="220" width="120" height="60" as="geometry" />
        </mxCell>
        <mxCell id="CLN-RXMXk3StLQkUaewG-32" value="댓글 삭제&lt;br&gt;[GET]&lt;br&gt;/donation_reply/delete" style="rounded=1;whiteSpace=wrap;html=1;fillColor=#ffe6cc;strokeColor=#d79b00;" vertex="1" parent="1">
          <mxGeometry x="550" y="360" width="120" height="60" as="geometry" />
        </mxCell>
        <mxCell id="CLN-RXMXk3StLQkUaewG-40" value="donationReplyNo" style="endArrow=classic;startArrow=classic;html=1;rounded=0;exitX=1;exitY=0.5;exitDx=0;exitDy=0;entryX=0.25;entryY=1;entryDx=0;entryDy=0;" edge="1" parent="1" source="CLN-RXMXk3StLQkUaewG-32" target="CLN-RXMXk3StLQkUaewG-1">
          <mxGeometry x="-0.2444" width="50" height="50" relative="1" as="geometry">
            <mxPoint x="660" y="429" as="sourcePoint" />
            <mxPoint x="840" y="279" as="targetPoint" />
            <Array as="points">
              <mxPoint x="720" y="390" />
              <mxPoint x="1020" y="390" />
            </Array>
            <mxPoint as="offset" />
          </mxGeometry>
        </mxCell>
        <mxCell id="CLN-RXMXk3StLQkUaewG-43" value="댓글 쓰기(입력)&lt;br&gt;[GET]&lt;br&gt;/donation_reply/insert" style="whiteSpace=wrap;html=1;rounded=1;fillColor=#ffe6cc;strokeColor=#d79b00;" vertex="1" parent="1">
          <mxGeometry x="550" y="290" width="120" height="60" as="geometry" />
        </mxCell>
        <mxCell id="CLN-RXMXk3StLQkUaewG-48" value="" style="endArrow=classic;startArrow=classic;html=1;rounded=0;entryX=0.25;entryY=0;entryDx=0;entryDy=0;exitX=1;exitY=0.5;exitDx=0;exitDy=0;" edge="1" parent="1" target="CLN-RXMXk3StLQkUaewG-1">
          <mxGeometry width="50" height="50" relative="1" as="geometry">
            <mxPoint x="670" y="177" as="sourcePoint" />
            <mxPoint x="759.9999999999999" y="245.00000000000006" as="targetPoint" />
            <Array as="points">
              <mxPoint x="710" y="177" />
              <mxPoint x="1020" y="177" />
            </Array>
          </mxGeometry>
        </mxCell>
        <mxCell id="CLN-RXMXk3StLQkUaewG-54" value="page&lt;br&gt;size&lt;br&gt;donationNo" style="edgeLabel;html=1;align=center;verticalAlign=middle;resizable=0;points=[];" vertex="1" connectable="0" parent="CLN-RXMXk3StLQkUaewG-48">
          <mxGeometry x="0.4325" y="1" relative="1" as="geometry">
            <mxPoint x="-109" as="offset" />
          </mxGeometry>
        </mxCell>
        <mxCell id="CLN-RXMXk3StLQkUaewG-53" value="" style="endArrow=classic;startArrow=classic;html=1;rounded=0;" edge="1" parent="1">
          <mxGeometry width="50" height="50" relative="1" as="geometry">
            <mxPoint x="670" y="249.76" as="sourcePoint" />
            <mxPoint x="990" y="249.76" as="targetPoint" />
            <Array as="points" />
          </mxGeometry>
        </mxCell>
        <mxCell id="CLN-RXMXk3StLQkUaewG-55" value="DonationReplyDto" style="edgeLabel;html=1;align=center;verticalAlign=middle;resizable=0;points=[];" vertex="1" connectable="0" parent="CLN-RXMXk3StLQkUaewG-53">
          <mxGeometry x="0.3565" relative="1" as="geometry">
            <mxPoint x="-37" as="offset" />
          </mxGeometry>
        </mxCell>
        <mxCell id="CLN-RXMXk3StLQkUaewG-58" value="게시판&lt;br&gt;shop/detail" style="rounded=1;whiteSpace=wrap;html=1;" vertex="1" parent="1">
          <mxGeometry x="990" y="610" width="120" height="60" as="geometry" />
        </mxCell>
        <mxCell id="CLN-RXMXk3StLQkUaewG-59" value="댓글 목록&lt;br&gt;[POST]&lt;br&gt;shop_reply/more" style="rounded=1;whiteSpace=wrap;html=1;fillColor=#e1d5e7;strokeColor=#9673a6;" vertex="1" parent="1">
          <mxGeometry x="550" y="530" width="120" height="60" as="geometry" />
        </mxCell>
        <mxCell id="CLN-RXMXk3StLQkUaewG-60" value="댓글 쓰기(등록)&lt;br&gt;[POST]&lt;br&gt;/shop_reply/insert" style="rounded=1;whiteSpace=wrap;html=1;fillColor=#e1d5e7;strokeColor=#9673a6;" vertex="1" parent="1">
          <mxGeometry x="550" y="600" width="120" height="60" as="geometry" />
        </mxCell>
        <mxCell id="CLN-RXMXk3StLQkUaewG-61" value="댓글 삭제&lt;br&gt;[GET]&lt;br&gt;/shop_reply/delete" style="rounded=1;whiteSpace=wrap;html=1;fillColor=#ffe6cc;strokeColor=#d79b00;" vertex="1" parent="1">
          <mxGeometry x="550" y="740" width="120" height="60" as="geometry" />
        </mxCell>
        <mxCell id="CLN-RXMXk3StLQkUaewG-62" value="shopReplyNo" style="endArrow=classic;startArrow=classic;html=1;rounded=0;exitX=1;exitY=0.5;exitDx=0;exitDy=0;entryX=0.25;entryY=1;entryDx=0;entryDy=0;" edge="1" parent="1" source="CLN-RXMXk3StLQkUaewG-61" target="CLN-RXMXk3StLQkUaewG-58">
          <mxGeometry x="-0.2444" width="50" height="50" relative="1" as="geometry">
            <mxPoint x="660" y="809" as="sourcePoint" />
            <mxPoint x="840" y="659" as="targetPoint" />
            <Array as="points">
              <mxPoint x="720" y="770" />
              <mxPoint x="1020" y="770" />
            </Array>
            <mxPoint as="offset" />
          </mxGeometry>
        </mxCell>
        <mxCell id="CLN-RXMXk3StLQkUaewG-63" value="댓글 쓰기(입력)&lt;br&gt;[GET]&lt;br&gt;/shop_reply/insert" style="whiteSpace=wrap;html=1;rounded=1;fillColor=#ffe6cc;strokeColor=#d79b00;" vertex="1" parent="1">
          <mxGeometry x="550" y="670" width="120" height="60" as="geometry" />
        </mxCell>
        <mxCell id="CLN-RXMXk3StLQkUaewG-65" value="" style="endArrow=classic;startArrow=classic;html=1;rounded=0;entryX=0.25;entryY=0;entryDx=0;entryDy=0;exitX=1;exitY=0.5;exitDx=0;exitDy=0;" edge="1" parent="1" target="CLN-RXMXk3StLQkUaewG-58">
          <mxGeometry width="50" height="50" relative="1" as="geometry">
            <mxPoint x="670.0000000000002" y="557" as="sourcePoint" />
            <mxPoint x="759.9999999999999" y="625" as="targetPoint" />
            <Array as="points">
              <mxPoint x="710" y="557" />
              <mxPoint x="1020" y="557" />
            </Array>
          </mxGeometry>
        </mxCell>
        <mxCell id="CLN-RXMXk3StLQkUaewG-66" value="page&lt;br&gt;size&lt;br&gt;shopNo" style="edgeLabel;html=1;align=center;verticalAlign=middle;resizable=0;points=[];" vertex="1" connectable="0" parent="CLN-RXMXk3StLQkUaewG-65">
          <mxGeometry x="0.4325" y="1" relative="1" as="geometry">
            <mxPoint x="-109" as="offset" />
          </mxGeometry>
        </mxCell>
        <mxCell id="CLN-RXMXk3StLQkUaewG-67" value="" style="endArrow=classic;startArrow=classic;html=1;rounded=0;" edge="1" parent="1">
          <mxGeometry width="50" height="50" relative="1" as="geometry">
            <mxPoint x="670.0000000000002" y="629.76" as="sourcePoint" />
            <mxPoint x="990" y="629.76" as="targetPoint" />
            <Array as="points" />
          </mxGeometry>
        </mxCell>
        <mxCell id="CLN-RXMXk3StLQkUaewG-68" value="ShopReplyDto" style="edgeLabel;html=1;align=center;verticalAlign=middle;resizable=0;points=[];" vertex="1" connectable="0" parent="CLN-RXMXk3StLQkUaewG-67">
          <mxGeometry x="0.3565" relative="1" as="geometry">
            <mxPoint x="-37" as="offset" />
          </mxGeometry>
        </mxCell>
        <mxCell id="CLN-RXMXk3StLQkUaewG-69" value="게시판&lt;br&gt;mybaby/detail" style="rounded=1;whiteSpace=wrap;html=1;" vertex="1" parent="1">
          <mxGeometry x="990" y="1080" width="120" height="60" as="geometry" />
        </mxCell>
        <mxCell id="CLN-RXMXk3StLQkUaewG-70" value="댓글 목록&lt;br&gt;[POST]&lt;br&gt;mybaby_reply/more" style="rounded=1;whiteSpace=wrap;html=1;fillColor=#e1d5e7;strokeColor=#9673a6;" vertex="1" parent="1">
          <mxGeometry x="550" y="1000" width="120" height="60" as="geometry" />
        </mxCell>
        <mxCell id="CLN-RXMXk3StLQkUaewG-71" value="댓글 쓰기(등록)&lt;br&gt;[POST]&lt;br&gt;/mybaby_reply/insert" style="rounded=1;whiteSpace=wrap;html=1;fillColor=#e1d5e7;strokeColor=#9673a6;" vertex="1" parent="1">
          <mxGeometry x="550" y="1070" width="120" height="60" as="geometry" />
        </mxCell>
        <mxCell id="CLN-RXMXk3StLQkUaewG-72" value="댓글 삭제&lt;br&gt;[GET]&lt;br&gt;/mybaby_reply/delete" style="rounded=1;whiteSpace=wrap;html=1;fillColor=#ffe6cc;strokeColor=#d79b00;" vertex="1" parent="1">
          <mxGeometry x="550" y="1210" width="120" height="60" as="geometry" />
        </mxCell>
        <mxCell id="CLN-RXMXk3StLQkUaewG-73" value="mybabyReplyNo" style="endArrow=classic;startArrow=classic;html=1;rounded=0;exitX=1;exitY=0.5;exitDx=0;exitDy=0;entryX=0.25;entryY=1;entryDx=0;entryDy=0;" edge="1" parent="1" source="CLN-RXMXk3StLQkUaewG-72" target="CLN-RXMXk3StLQkUaewG-69">
          <mxGeometry x="-0.2444" width="50" height="50" relative="1" as="geometry">
            <mxPoint x="660" y="1279" as="sourcePoint" />
            <mxPoint x="840" y="1129" as="targetPoint" />
            <Array as="points">
              <mxPoint x="720" y="1240" />
              <mxPoint x="1020" y="1240" />
            </Array>
            <mxPoint as="offset" />
          </mxGeometry>
        </mxCell>
        <mxCell id="CLN-RXMXk3StLQkUaewG-74" value="댓글 쓰기(입력)&lt;br&gt;[GET]&lt;br&gt;/mybaby_reply/insert" style="whiteSpace=wrap;html=1;rounded=1;fillColor=#ffe6cc;strokeColor=#d79b00;" vertex="1" parent="1">
          <mxGeometry x="550" y="1140" width="120" height="60" as="geometry" />
        </mxCell>
        <mxCell id="CLN-RXMXk3StLQkUaewG-75" value="" style="endArrow=classic;startArrow=classic;html=1;rounded=0;exitX=1;exitY=0.5;exitDx=0;exitDy=0;entryX=0;entryY=0.628;entryDx=0;entryDy=0;entryPerimeter=0;" edge="1" parent="1" source="CLN-RXMXk3StLQkUaewG-74" target="CLN-RXMXk3StLQkUaewG-69">
          <mxGeometry width="50" height="50" relative="1" as="geometry">
            <mxPoint x="670" y="1182" as="sourcePoint" />
            <mxPoint x="760" y="1117" as="targetPoint" />
            <Array as="points">
              <mxPoint x="710" y="1170" />
              <mxPoint x="960" y="1170" />
              <mxPoint x="960" y="1118" />
            </Array>
          </mxGeometry>
        </mxCell>
        <mxCell id="CLN-RXMXk3StLQkUaewG-76" value="" style="endArrow=classic;startArrow=classic;html=1;rounded=0;entryX=0.25;entryY=0;entryDx=0;entryDy=0;exitX=1;exitY=0.5;exitDx=0;exitDy=0;" edge="1" parent="1" target="CLN-RXMXk3StLQkUaewG-69">
          <mxGeometry width="50" height="50" relative="1" as="geometry">
            <mxPoint x="670.0000000000002" y="1027" as="sourcePoint" />
            <mxPoint x="759.9999999999999" y="1095" as="targetPoint" />
            <Array as="points">
              <mxPoint x="710" y="1027" />
              <mxPoint x="1020" y="1027" />
            </Array>
          </mxGeometry>
        </mxCell>
        <mxCell id="CLN-RXMXk3StLQkUaewG-77" value="page&lt;br&gt;size&lt;br&gt;&lt;span style=&quot;font-size: 12px ; background-color: rgb(248 , 249 , 250)&quot;&gt;mybaby&lt;/span&gt;No" style="edgeLabel;html=1;align=center;verticalAlign=middle;resizable=0;points=[];" vertex="1" connectable="0" parent="CLN-RXMXk3StLQkUaewG-76">
          <mxGeometry x="0.4325" y="1" relative="1" as="geometry">
            <mxPoint x="-109" as="offset" />
          </mxGeometry>
        </mxCell>
        <mxCell id="CLN-RXMXk3StLQkUaewG-78" value="" style="endArrow=classic;startArrow=classic;html=1;rounded=0;" edge="1" parent="1">
          <mxGeometry width="50" height="50" relative="1" as="geometry">
            <mxPoint x="670.0000000000002" y="1099.76" as="sourcePoint" />
            <mxPoint x="990" y="1099.76" as="targetPoint" />
            <Array as="points" />
          </mxGeometry>
        </mxCell>
        <mxCell id="CLN-RXMXk3StLQkUaewG-79" value="&lt;span style=&quot;font-size: 12px ; background-color: rgb(248 , 249 , 250)&quot;&gt;Mybaby&lt;/span&gt;ReplyDto" style="edgeLabel;html=1;align=center;verticalAlign=middle;resizable=0;points=[];" vertex="1" connectable="0" parent="CLN-RXMXk3StLQkUaewG-78">
          <mxGeometry x="0.3565" relative="1" as="geometry">
            <mxPoint x="-37" as="offset" />
          </mxGeometry>
        </mxCell>
        <mxCell id="CLN-RXMXk3StLQkUaewG-80" value="" style="endArrow=classic;startArrow=classic;html=1;rounded=0;exitX=1;exitY=0.5;exitDx=0;exitDy=0;entryX=0;entryY=0.628;entryDx=0;entryDy=0;entryPerimeter=0;" edge="1" parent="1">
          <mxGeometry width="50" height="50" relative="1" as="geometry">
            <mxPoint x="669.9999999999998" y="702.3199999999999" as="sourcePoint" />
            <mxPoint x="990" y="649.9999999999998" as="targetPoint" />
            <Array as="points">
              <mxPoint x="710" y="702.3199999999999" />
              <mxPoint x="960" y="702.3199999999999" />
              <mxPoint x="960" y="650.3199999999999" />
            </Array>
          </mxGeometry>
        </mxCell>
        <mxCell id="CLN-RXMXk3StLQkUaewG-81" value="" style="endArrow=classic;startArrow=classic;html=1;rounded=0;exitX=1;exitY=0.5;exitDx=0;exitDy=0;entryX=0;entryY=0.628;entryDx=0;entryDy=0;entryPerimeter=0;" edge="1" parent="1">
          <mxGeometry width="50" height="50" relative="1" as="geometry">
            <mxPoint x="669.9999999999998" y="322.31999999999994" as="sourcePoint" />
            <mxPoint x="990" y="269.9999999999998" as="targetPoint" />
            <Array as="points">
              <mxPoint x="710" y="322.31999999999994" />
              <mxPoint x="960" y="322.31999999999994" />
              <mxPoint x="960" y="270.31999999999994" />
            </Array>
          </mxGeometry>
        </mxCell>
      </root>
    </mxGraphModel>
  </diagram>
  <diagram id="be9bJuNNZMZFvajdghEj" name="Page-2">
    <mxGraphModel dx="1370" dy="717" grid="1" gridSize="10" guides="1" tooltips="1" connect="1" arrows="1" fold="1" page="1" pageScale="1" pageWidth="827" pageHeight="1169" math="0" shadow="0">
      <root>
        <mxCell id="K8d45ljmQb_X8X-0TwaO-0" />
        <mxCell id="K8d45ljmQb_X8X-0TwaO-1" parent="K8d45ljmQb_X8X-0TwaO-0" />
      </root>
    </mxGraphModel>
  </diagram>
</mxfile>
